<svg xmlns="http://www.w3.org/2000/svg" width="600" height="400" fill="none" xmlns:v="https://vecta.io/nano"><style><![CDATA[.B{fill-rule:evenodd}.C{stroke:#e1e4e5}.D{stroke-linecap:round}.E{stroke:#f4f4f4}.F{fill:#f8ae9d}.G{fill:#f4f4f4}.H{stroke-width:4}.I{fill:#1e61ff}.J{fill:#12234a}.K{stroke-linejoin:round}.L{stroke-width:1.376}.M{stroke-miterlimit:10}]]></style><g class="B C G"><path d="M241.743 305.385c-1.108-.006-1.73-1.24-1.018-2.088 10.206-12.162 65.467-73.662 140.121-74.619 75.127-.963 136.391 60.193 152.093 74.965.974.916.172 3.01-1.165 3.004l-290.031-1.262h0z"/><path d="M172.705 305.373s58.966-75.633 141.819-76.695c83.228-1.067 149.443 74.105 155.543 77.989l-297.362-1.294h0z" class="H"/></g><path d="M146.467 293.485v-15.364m83.087 15.364v-15.364m-72.883 15.364v-10.636m82.356 10.636v-10.636m146.306 23.181v-10.636m-249.07-1.909v-10.636m83.087 10.636v-10.636m142.849 23.181v-10.636" class="C H"/><path d="M56 305.579s64.294-50.857 154.633-51.572c90.749-.717 162.947 49.831 169.598 52.442L56 305.579z" class="B C G"/><path d="M132.29 305.655v-10.332m90.594 10.332v-10.332m155.757 10.332v-10.332m-235.225 10.332v-7.153m89.797 7.153v-7.153m159.28 7.153v-7.153m-271.329 7.153v-7.153m90.594 7.153v-7.153" class="H C"/><path d="M193.67 326.374c-.784-.387-1.277-1.237-1.211-2.085.033-.45.201-.879.484-1.23a2.22 2.22 0 0 1 1.098-.734c.243-.071.501-.096.756-.124l4.544-.674a2.4 2.4 0 0 1 1.901.321c.777.496 1.123 1.224 1.027 2.121s-.626 1.518-1.476 1.841c-.16.06-.326.102-.496.125l-5.256.676c-.483.036-.94-.022-1.371-.237h0zm7.041 6.225c-.326.675-.884 1.128-1.58 1.302-1.713.425-3.443.82-5.214.89-1.616.061-2.695-1.456-2.164-2.964.303-.862.97-1.351 1.86-1.445 1.149-.119 2.264-.373 3.398-.559.361-.059.696-.185 1.04-.296a2.21 2.21 0 0 1 1.291-.024c.423.121.8.366 1.082.704a2.18 2.18 0 0 1 .287 2.392h0zm5.004-4.513c.288-.587.754-.963 1.376-1.149l2.846-.695c.438-.085.857-.207 1.263-.41.29-.146.608-.23.932-.248s.649.032.954.145a2.37 2.37 0 0 1 .816.514c.234.225.419.496.544.796.508 1.227-.101 2.572-1.389 3.054a3.22 3.22 0 0 1-.551.162l-4.238.903c-.871.205-1.647.003-2.253-.685-.591-.674-.7-1.578-.3-2.387h0zm2.462 5.953c.938.496 1.308 1.252 1.32 2.187a2.23 2.23 0 0 1-1.222 2.091 3.78 3.78 0 0 1-.951.362l-3.473.847c-.739.175-1.446.094-2.056-.393-.671-.538-.959-1.254-.803-2.1.163-.89.714-1.49 1.583-1.755l2.042-.527c.519-.12 1.004-.266 1.459-.589.675-.485 1.431-.448 2.101-.123h0zm13.79 2.43c-.23.472-.576.843-1.057 1.068-.271.125-.547.238-.833.309l-2.892.774c-1.457.403-2.789-.53-2.868-1.974-.049-.905.46-1.719 1.348-2.129.66-.305 1.363-.482 2.066-.648.376-.09.724-.21 1.059-.41.908-.544 1.931-.412 2.702.31.73.686.924 1.782.475 2.7h0zm-41.03-11.724c.256-.47.6-.806 1.058-1.014.312-.144.636-.248.978-.28l2.732-.24c1.652-.07 2.778 1.395 2.256 2.939-.272.809-.878 1.285-1.709 1.451-.267.054-.549.052-.822.086l-2.217.236c-.872.141-1.596-.184-2.104-.908-.514-.722-.524-1.502-.172-2.27zm25.721-8.897c.867.445 1.324 1.239 1.257 2.119-.072.946-.57 1.578-1.442 1.922a1.87 1.87 0 0 1-.617.145l-2.422.07c-.455.002-.878-.146-1.256-.415-.747-.545-1.082-1.433-.864-2.307.225-.886.923-1.567 1.82-1.652.887-.085 1.783-.085 2.674-.104a1.62 1.62 0 0 1 .85.222h0zm-118.713 3.907c-.483-.288-.756-.859-.67-1.4a1.43 1.43 0 0 1 1.115-1.179c.16-.033.327-.036.491-.041l2.951-.2c.211-.035.426-.026.633.026a1.54 1.54 0 0 1 .57.278 1.35 1.35 0 0 1 .551 1.413c-.109.573-.479.942-1.041 1.105-.106.03-.215.049-.325.056l-3.407.164c-.311-.001-.602-.062-.867-.222h0zm4.199 4.354c-.112.199-.267.37-.455.501s-.401.217-.626.254c-1.121.185-2.251.349-3.39.304-1.041-.043-1.655-1.071-1.237-2.012.239-.538.691-.817 1.267-.832.743-.018 1.471-.123 2.209-.185.235-.02.456-.083.683-.137.573-.135 1.147.087 1.487.558.33.458.354 1.061.062 1.549h0zm3.441-2.64c.215-.362.533-.579.941-.666a18.61 18.61 0 0 1 1.863-.301c.285-.028.564-.095.831-.199a1.54 1.54 0 0 1 .611-.111c.209.005.415.053.604.142s.359.214.498.371a1.54 1.54 0 0 1 .308.539c.263.813-.196 1.645-1.048 1.888-.118.036-.239.062-.362.076l-2.765.363c-.569.086-1.057-.082-1.411-.554-.345-.464-.368-1.049-.071-1.548h0zm1.276 3.945c.576.366.775.87.735 1.471-.039.594-.345 1.03-.891 1.279a2.46 2.46 0 0 1-.629.184l-2.271.366c-.483.074-.933-.014-1.299-.358-.403-.379-.551-.853-.407-1.388a1.38 1.38 0 0 1 1.105-1.045l1.337-.234c.339-.05.658-.12.966-.303.458-.277.941-.215 1.355.028h0zm8.724 2.264c-.173.291-.414.511-.734.631a3 3 0 0 1-.55.156l-1.895.349c-.955.184-1.762-.483-1.739-1.413.015-.584.383-1.08.974-1.297.439-.163.899-.24 1.358-.311.243-.032.48-.103.701-.209.61-.303 1.26-.165 1.717.337.434.478.502 1.191.168 1.757h0zm-25.726-9.619c.189-.288.427-.486.731-.596.207-.076.421-.126.641-.13l1.765-.014c1.064.039 1.711 1.037 1.297 2.001-.215.505-.629.779-1.171.844-.174.021-.355.005-.532.013l-1.434.038a1.31 1.31 0 0 1-1.303-.69c-.293-.49-.26-.99.005-1.466h0zm16.957-4.393c.534.329.786.863.699 1.423-.095.604-.447.984-1.023 1.16a1.27 1.27 0 0 1-.404.062l-1.557-.08a1.36 1.36 0 0 1-.784-.33c-.452-.388-.621-.975-.437-1.524.189-.557.672-.958 1.252-.967.573-.009 1.149.037 1.721.07a1.04 1.04 0 0 1 .534.186h0zm212.208 16.839c-.743-.303-1.251-1.049-1.245-1.83a2.04 2.04 0 0 1 .361-1.158c.236-.34.57-.6.957-.745.218-.08.454-.121.684-.163l4.118-.916c.289-.095.595-.129.898-.1a2.21 2.21 0 0 1 .864.269 1.93 1.93 0 0 1 1.079 1.875c-.031.832-.473 1.432-1.231 1.782-.142.066-.292.115-.445.148l-4.769.965c-.44.065-.862.042-1.271-.127h0zm6.858 5.236c-.255.64-.736 1.091-1.362 1.297-1.541.501-3.099.977-4.715 1.157-1.477.163-2.564-1.155-2.178-2.57a1.92 1.92 0 0 1 1.609-1.446c1.044-.185 2.049-.491 3.075-.736.326-.078.625-.215.933-.34.374-.152.785-.189 1.18-.106a2.02 2.02 0 0 1 1.037.573c.564.575.727 1.42.421 2.171zm4.284-4.462c.226-.556.627-.931 1.185-1.142l2.561-.824a4.47 4.47 0 0 0 1.129-.458 2.15 2.15 0 0 1 .837-.288 2.16 2.16 0 0 1 1.664.486 2.17 2.17 0 0 1 .551.694c.545 1.089.076 2.361-1.072 2.888a2.99 2.99 0 0 1-.494.184l-3.82 1.105c-.785.245-1.508.112-2.108-.478-.586-.579-.746-1.399-.433-2.167h0zm2.647 5.29c.891.392 1.279 1.06 1.352 1.916.072.846-.266 1.526-.982 1.994a3.45 3.45 0 0 1-.846.395l-3.124 1.004c-.666.209-1.318.181-1.91-.225a1.9 1.9 0 0 1-.872-1.87c.09-.826.555-1.412 1.334-1.711l1.835-.617c.467-.144.901-.31 1.297-.635.586-.489 1.281-.505 1.916-.251h0zm12.787 1.318c-.18.447-.473.81-.898 1.047-.24.133-.485.255-.743.338l-2.597.899c-1.307.466-2.589-.302-2.755-1.619-.105-.826.308-1.604 1.094-2.038.584-.323 1.216-.531 1.849-.73.338-.107.649-.239.943-.445.796-.558 1.741-.504 2.494.107a2.12 2.12 0 0 1 .613 2.441h0zm-38.342-8.037c.203-.447.497-.777.901-.998a2.76 2.76 0 0 1 .878-.32l2.485-.4c1.509-.173 2.636 1.095 2.26 2.543-.195.759-.719 1.235-1.469 1.442-.242.066-.5.083-.748.132l-2.014.362c-.789.186-1.473-.064-1.986-.693-.519-.627-.58-1.341-.307-2.068h0zm22.967-9.838c.823.35 1.294 1.047 1.291 1.857-.005.872-.419 1.483-1.195 1.855-.174.089-.361.148-.555.173l-2.213.224c-.417.032-.814-.076-1.178-.298-.72-.449-1.085-1.241-.942-2.055.147-.826.742-1.496 1.558-1.633.806-.136 1.627-.195 2.441-.271a1.49 1.49 0 0 1 .793.148h0zm109.466 10.493c-.744-.303-1.251-1.049-1.246-1.83 0-.413.126-.817.362-1.158s.57-.6.957-.745c.218-.08.453-.121.684-.163l4.117-.916a2.21 2.21 0 0 1 1.762.169 1.93 1.93 0 0 1 1.08 1.875c-.031.832-.474 1.432-1.231 1.782-.143.066-.292.115-.445.148l-4.769.965c-.44.065-.862.042-1.271-.127h0zm6.858 5.236c-.256.64-.736 1.091-1.362 1.297-1.541.501-3.099.977-4.716 1.157-1.476.163-2.564-1.155-2.177-2.57.221-.81.799-1.302 1.609-1.446 1.044-.185 2.048-.491 3.074-.736.327-.078.626-.215.934-.34.374-.152.785-.189 1.18-.106s.756.283 1.037.573c.564.575.727 1.42.421 2.171zm4.284-4.462c.226-.556.627-.931 1.184-1.142l2.562-.824c.395-.107.77-.246 1.128-.458a2.16 2.16 0 0 1 1.721-.218 2.16 2.16 0 0 1 .781.416 2.17 2.17 0 0 1 .55.694c.546 1.089.077 2.361-1.071 2.888a2.99 2.99 0 0 1-.494.184l-3.821 1.105c-.784.245-1.508.112-2.108-.478-.586-.579-.745-1.399-.432-2.167h0zm2.647 5.29c.891.392 1.279 1.06 1.352 1.916.072.846-.267 1.526-.982 1.994a3.44 3.44 0 0 1-.847.395l-3.124 1.004c-.665.209-1.318.181-1.909-.225-.649-.449-.96-1.085-.873-1.87.09-.826.556-1.412 1.334-1.711l1.836-.617c.467-.144.901-.31 1.296-.635.587-.489 1.282-.505 1.917-.251h0zm12.787 1.318c-.18.447-.473.81-.898 1.047-.24.133-.485.255-.743.338l-2.597.899c-1.308.466-2.589-.302-2.756-1.619-.104-.826.308-1.604 1.095-2.038.584-.323 1.216-.531 1.849-.73a3.36 3.36 0 0 0 .942-.445c.796-.558 1.742-.504 2.495.107.713.58.963 1.57.613 2.441h0zm-38.342-8.037c.203-.447.496-.777.901-.998.272-.156.569-.264.877-.32l2.486-.4c1.509-.173 2.636 1.095 2.26 2.543-.196.759-.72 1.235-1.47 1.442-.241.066-.499.083-.747.132l-2.015.362c-.788.186-1.472-.064-1.986-.693s-.579-1.341-.306-2.068h0zm22.967-9.838c.823.35 1.293 1.047 1.291 1.857-.005.872-.42 1.483-1.195 1.855a1.7 1.7 0 0 1-.555.173l-2.214.224c-.416.032-.813-.076-1.177-.298-.72-.449-1.085-1.241-.943-2.055.148-.826.742-1.496 1.558-1.633.806-.136 1.628-.195 2.442-.271a1.49 1.49 0 0 1 .793.148h0zm72.132 10.493c-.743-.303-1.251-1.049-1.245-1.83a2.04 2.04 0 0 1 .361-1.158c.236-.34.57-.6.957-.745.218-.08.454-.121.684-.163l4.118-.916c.289-.095.595-.129.898-.1a2.21 2.21 0 0 1 .864.269 1.93 1.93 0 0 1 1.079 1.875c-.031.832-.473 1.432-1.231 1.782-.142.066-.292.115-.445.148l-4.769.965c-.44.065-.862.042-1.271-.127h0zm6.858 5.236c-.255.64-.736 1.091-1.362 1.297-1.541.501-3.099.977-4.715 1.157-1.477.163-2.564-1.155-2.178-2.57a1.92 1.92 0 0 1 1.609-1.446c1.044-.185 2.049-.491 3.075-.736.326-.078.625-.215.933-.34.374-.152.785-.189 1.18-.106a2.02 2.02 0 0 1 1.037.573c.564.575.727 1.42.421 2.171zm4.284-4.462c.226-.556.627-.931 1.185-1.142l2.561-.824a4.47 4.47 0 0 0 1.129-.458 2.15 2.15 0 0 1 .837-.288 2.16 2.16 0 0 1 1.664.486 2.17 2.17 0 0 1 .551.694c.545 1.089.076 2.361-1.072 2.888a2.99 2.99 0 0 1-.494.184l-3.82 1.105c-.785.245-1.508.112-2.108-.478-.586-.579-.746-1.399-.433-2.167h0zm2.647 5.29c.891.392 1.279 1.06 1.352 1.916.072.846-.266 1.526-.982 1.994a3.45 3.45 0 0 1-.846.395l-3.124 1.004c-.666.209-1.318.181-1.91-.225a1.9 1.9 0 0 1-.872-1.87c.09-.826.555-1.412 1.334-1.711l1.835-.617c.467-.144.901-.31 1.297-.635.586-.489 1.281-.505 1.916-.251h0zm12.787 1.318c-.18.447-.473.81-.898 1.047-.24.133-.485.255-.743.338l-2.597.899c-1.307.466-2.589-.302-2.755-1.619-.105-.826.308-1.604 1.094-2.038.584-.323 1.216-.531 1.849-.73.338-.107.649-.239.943-.445.796-.558 1.741-.504 2.494.107a2.12 2.12 0 0 1 .613 2.441h0zm-38.342-8.037c.203-.447.497-.777.901-.998a2.76 2.76 0 0 1 .878-.32l2.485-.4c1.509-.173 2.636 1.095 2.26 2.543-.195.759-.719 1.235-1.469 1.442-.242.066-.5.083-.748.132l-2.014.362c-.789.186-1.473-.064-1.986-.693-.519-.627-.58-1.341-.307-2.068h0zm22.967-9.838c.823.35 1.294 1.047 1.291 1.857-.005.872-.419 1.483-1.195 1.855-.174.089-.361.148-.555.173l-2.213.224c-.417.032-.814-.076-1.178-.298-.72-.449-1.085-1.241-.942-2.055.147-.826.742-1.496 1.558-1.633.806-.136 1.627-.195 2.441-.271a1.49 1.49 0 0 1 .793.148h0zm-363.87 5.984c-1.4-.027-2.468-.69-3.283-1.82-.739-1.023-.813-2.162-.531-3.353.258-1.094.739-2.078 1.52-2.878.698-.717 1.534-1.212 2.546-1.274.554-.034 1.08.146 1.532.488l.733.507c1.144.827 1.889 1.931 2.147 3.349.08.426.021.861-.111 1.272-.581 1.811-1.716 3.058-3.541 3.589a3.01 3.01 0 0 1-1.012.12h0zm335.028-30.666c-1.292-.023-2.278-.591-3.03-1.56-.683-.877-.75-1.853-.49-2.874.238-.938.682-1.781 1.402-2.467.645-.614 1.417-1.038 2.351-1.092.505-.025 1.003.122 1.413.418l.678.435c1.056.709 1.744 1.655 1.982 2.871.073.365.019.738-.103 1.09-.536 1.552-1.584 2.621-3.269 3.076-.304.084-.619.118-.934.103h0z" fill="#e1e4e5"/><path d="M84.226 137.625c-9.043 0-4.812-14.341 6.645-10.916.635-19.911 33.09-34.48 46.51-7.624 3.794-3.002 12.314 2.669 10.428 7.624 4.214.36 7.53.847 10.11 1.493 5.956 1.491 4.778 9.355-1.362 9.3l-72.331.123h0zm170.381 0c8.552 0 4.551-13.56-6.283-10.322-.6-18.828-31.29-32.604-43.981-7.209-3.588-2.839-11.644 2.523-9.86 7.209-3.986.34-7.121.802-9.561 1.412-5.633 1.41-4.517 8.846 1.289 8.794l68.396.116h0zm73.519-61.484c-6.394 0-3.402-10.14 4.699-7.717.448-14.079 23.396-24.38 32.886-5.391 2.682-2.123 8.707 1.887 7.373 5.391 2.98.254 5.325.599 7.149 1.055 4.212 1.054 3.378 6.615-.964 6.576l-51.143.086h0zm-139.92 37.941h-38.31c-3.425 0-4.901-4.444-2.098-6.415a3.2 3.2 0 0 1 .119-.084c3.99-2.749 9.228-2.499 9.228-2.499s.748-14.873 14.839-14.873c12.741 0 17.821 12.532 19.653 19.436.596 2.242-1.115 4.435-3.431 4.435h0zm279.187-8.018h-34.414c-3.077 0-4.402-4.014-1.885-5.795l.107-.076c3.585-2.482 8.29-2.256 8.29-2.256s.672-13.433 13.33-13.433c11.445 0 16.009 11.319 17.655 17.554a3.2 3.2 0 0 1-3.083 4.007h0zm-8.373 31.423h46.167c3.738 0 5.35-4.731 2.29-6.83-.043-.03-.086-.059-.13-.088-4.355-2.927-10.072-2.662-10.072-2.662s-.816-15.831-16.196-15.831c-7.604 0-13.749 12.705-13.749 12.705s-10.344 0-12.056 7.984c-.517 2.418 1.217 4.722 3.746 4.722zm-25.967 1.545H330.701c-9.608 0-9.167-7.952-6.028-10.723 3.216-2.84 9.572-1.688 9.572-1.688s1.892-5.348 8.12-7.952c5.509-2.304 11.28-1.208 11.28-1.208s0-3.671 3.528-6.711 8.23-2.745 8.23-2.745 3.234-20.242 24.84-20.242 24.104 19.06 24.104 19.06 4.85 0 8.377 3.25 3.969 6.944 3.969 6.944 11.796-1.598 15.286 8.632c2.078 6.098-2.193 13.383-8.926 13.383h0zM231.836 97.333h84.838c7.963 0 7.598-6.618 4.997-8.924-2.666-2.363-7.934-1.405-7.934-1.405s-1.569-4.451-6.731-6.618c-4.567-1.917-9.35-1.005-9.35-1.005s0-3.055-2.924-5.585-6.823-2.285-6.823-2.285-2.679-16.845-20.588-16.845-19.979 15.861-19.979 15.861-4.02 0-6.944 2.705-3.289 5.779-3.289 5.779-9.778-1.33-12.67 7.183c-1.724 5.074 1.817 11.137 7.397 11.137h0z" class="B C G"/><g class="K"><path d="M253.334 175.791v-28.249c0-20.801 16.865-37.667 37.667-37.667s37.666 16.866 37.666 37.667v28.249" stroke="#12234a" stroke-width="13.893" class="D"/><path d="M348.381 309.239H233.619a22.95 22.95 0 0 1-22.952-22.953v-80.333A22.95 22.95 0 0 1 233.619 183h114.762a22.95 22.95 0 0 1 22.952 22.953v80.333a22.95 22.95 0 0 1-22.952 22.953h0z" stroke="#1e61ff" stroke-width="16.932" class="B I"/><path d="M290.214 227.725c-4.673 0-8.466 3.793-8.432 8.466a8.47 8.47 0 0 0 8.465 8.466 8.47 8.47 0 0 0 8.466-8.466c0-4.673-3.792-8.466-8.499-8.466m.032 45.93v-28.784 28.784z" stroke-width="35.331" class="D E"/></g><path d="M197.333 257.177c0 25.881-19.482 50.08-45.666 55.956C125.483 307.257 106 283.058 106 257.177v-20.33c.001-2.264.676-4.477 1.94-6.356s3.058-3.339 5.155-4.193l28.542-11.661c6.428-2.627 13.631-2.627 20.059 0l28.542 11.661a11.4 11.4 0 0 1 7.095 10.549v20.33z" class="B I"/><path d="M168.982 252.009l-19.979 19.978L137.015 260" stroke-width="16.625" class="D E K"/><g class="F"><path d="M487.371 307.539c4.344-1.468 8.11-4.594 10.308-8.604.622-1.106 1.129-2.376.962-3.634-.042-.256-.108-.559-.338-.679-.208-.119-.488-.053-.721.013-7.256 1.958-14.928 5.256-22.544 4.908-.349-.005-.697-.033-1.001.102-.374.156-.612.502-.78.871-.576 1.199-1.075 3.469-.886 4.819.231 1.607 1.784 1.84 3.15 2.186 3.889.988 7.973 1.33 11.85.018z"/><path d="M488.042 298.533c.585-.247 1.192-.493 1.82-.507s1.319.322 1.519.929c.134.421.01.86-.158 1.253-.457 1.015-1.26 1.839-2.107 2.57-3.249 2.739-7.409 4.395-11.666 4.656-1.883.111-3.856-.059-5.516-.943.829-1.01.665-2.453.754-3.73.266-3.737 3.451-2.318 6.007-2.325 3.208-.068 6.4-.693 9.347-1.903h0z"/></g><g class="J"><path d="M390.822 270.891l-.146.417c-1.021 2.959-1.811 6.013-2.137 9.145-.599 5.754.53 12.486 4.859 16.665 5.771 5.572 15.029 6.433 22.555 5.106a19.04 19.04 0 0 0 8.445-3.752c2.452 2.221 5.087 4.655 7.281 7.128 4.405-1.541 8.598-3.632 12.479-6.223 9.185 4.205 18.552 7.043 28.443 9.099a38.42 38.42 0 0 0 2.364-8.748c.076-.487-6.088-4.647-6.799-5.238-2.134-1.799-6.579-5.909-6.579-5.909l8.053-7.012a116.49 116.49 0 0 0 7.454-7.322c1.961-2.108 3.877-4.333 5.079-6.964 1.201-2.607 1.643-5.691.638-8.402-3.171-8.436-15.973-5.47-21.919-2.563-4.917 2.411-9.222 5.925-13.366 9.487-1.671 1.415-3.32 2.877-4.945 4.316-1.281-1.32-2.696-3.038-3.906-4.428-1.302-1.506-2.79-2.924-4.59-3.81-1.89-.959-3.635-.822-5.652-1.109-.904-.13-1.784-.399-2.664-.551-2.642-.482-5.438.033-7.759 1.392-2.204 1.291-3.993 2.821-6.58 3.316-2.936.56-6.347.229-9.292-.164-2.643-.366-5.33-.964-7.963-.447-1.096.216-1.514 1.743-1.876 2.621l-1.477 3.95h0zm23.333-97.309s-7.11-1.131-9.019 11.42c-2.121 13.953-7.786 11.658-16.782 22.988-5.258 6.621.275 18.313 11.519 18.081 11.244-.226 21.398-3.478 27.865-2.086s6.823-15.175.442-20.286 7.224-19.788-1.067-26.324-12.958-3.793-12.958-3.793z"/><path d="M371.657 228.927c-.648-1.332-.609-2.88-.375-4.325 1.013-6.2 5.359-11.381 10.339-15.177 4.996-3.806 10.715-6.524 15.972-9.935 1.364-.888 2.732-1.845 4.298-2.325s3.388-.428 4.681.582c.913.708 1.441 1.804 1.748 2.9.673 2.4.415 4.942.005 7.376-.514 3.071-1.267 6.11-2.504 8.932-.992 2.277-2.607 4.62-5.034 5.066-.702 2.72-2.148 5.27-4.175 7.222-2.319 2.236-5.259 3.699-8.311 4.721-2.812.943-5.887 1.559-8.715.679-1.679-.513-3.157-1.5-4.603-2.506-1.29-.858-2.629-1.796-3.326-3.21h0zm25.41-4.134l1.66-2.635c-.351.03-.697.112-1.025.242-.911.394-1.46 1.83-.635 2.393z"/></g><path d="M427.824 184.619c.086.466.101.954.07 1.512a31.05 31.05 0 0 1-2.073 9.495c-.724 1.801-1.611 3.577-2.866 5.069-.52.619-1.11 1.191-1.88 1.412-.793.22-1.793.251-2.58.054-.694 2.87-.404 8.288 2.074 10.324.758.616 1.658 1.002 2.559 1.341 1.755.677 3.583 1.193 5.413 1.592 2.084.45 4.356.787 5.82 2.319.184.189.366.448.292.702-.049.162-.167.276-.308.367-1.152.935-2.578 1.448-4.003 1.937-2.499.846-5.065 1.55-7.675 2.022-2.726.493-5.542.729-8.302.431-2.134-.241-4.24-.785-6.178-1.743-2.029-1.007-4.108-1.829-6.208-2.79-1.777-.817-3.528-1.75-5.452-2.081.909-1.729 2.806-2.699 4.695-3.159 1.889-.436 3.865-.476 5.775-.842.63-.129 1.26-.282 1.8-.669 1.48-1.07 1.074-3.446 1.098-5.003l.075-4.924c-.22-2.351-1.189-4.318-2.039-6.468-1.298-3.296-1.566-7.041-.423-10.416 1.143-3.352 3.743-6.264 7.084-7.444s7.351-.516 9.915 1.939c1.626 1.582 2.952 2.996 3.317 5.023z" class="F"/><g class="J"><path d="M417.551 174.147c3.329-.372 6.363 1.259 8.612 3.786 1.893 2.119 3.006 4.916 2.95 7.726-.008.402-.054.838-.28 1.199-.602.864-1.91.546-2.888.161-1.594-.616-2.78-1.515-4.226-2.274s-3.199-.648-4.492-1.696c-1.222-1.01-5.414-3.139-5.527-4.784-.143-2.01 3.541-3.653 5.081-3.987.22-.069.477-.1.77-.131h0z"/><path d="M407.958 178.699c-2.816 1.816-4.137 4.996-4.283 8.376-.129 2.838.776 5.709 2.595 7.852.26.306.571.616.975.752 1.012.29 1.824-.782 2.34-1.699.846-1.485 1.197-2.932 1.838-4.433s2.07-2.524 2.41-4.154c.308-1.554 2.213-5.853 1.262-7.2-1.161-1.648-5.054-.593-6.458.121-.214.086-.433.223-.679.385z"/></g><path d="M433.001 217.02a1.05 1.05 0 0 1 1.273.345c3.322 4.65 4.605 10.479 5.727 16.096 1.274 6.386 2.408 12.794 3.496 19.2.065.326.106.676-.038.976s-.472.457-.776.592l-5.781 2.747c-2.071-4.713-3.564-9.659-4.447-14.73-1.232 3.119-3.457 5.827-6.296 7.596 2.115 3.029 4.718 9.087 7.258 11.751.388.424 2.791-.236 3.328-.414.334.958-1.23-.065-1.222.911-1.444.211-3.289-.654-4.774-.839-1.79-.209-3.597-.221-5.39-.036-2.979.327-5.874 1.259-8.522 2.66a30.29 30.29 0 0 0-3.777 2.382c-1.034.774-3.595 2.594-3.595 2.594-.188.137-1.068-.062-1.276-.112a23.46 23.46 0 0 0-1.832-.237c-1.54-.12-3.073-.322-4.592-.604-3.035-.557-6.02-1.416-8.883-2.598-.275-.213.708-2.243.761-2.638-.052.371-5.692-.086-6.248-.187-2.224-.452-4.474-.696-6.698-1.171.996-8.954 3.73-17.603 6.416-26.183 1.051-3.376 2.124-6.753 3.614-9.937 1.584-3.391 3.631-6.567 6.09-9.388.072-.069.188-.113.281-.089 1.18.297 8.379 2.15 11.96 3.482 1.825.702 3.675 1.334 5.547 1.966.74.244 1.503.488 2.27.476.512-.015 1.024-.124 1.514-.232 4.989-1.11 9.98-2.312 14.612-4.379h0z" class="I"/><path d="M400.526 234.86l-.756 3.846c-.669 2.89-1.527 5.734-2.569 8.512l-1.712 4.11-.96 2.007-.503.992-.453.782c.999-.03 5.932.254 6.954.339" class="D E L M"/><path d="M400.687 256.449l-.379 1.946-.447 1.945c-.148.556-.484 1.247-.493 1.829.002-.117 3.957-.452 4.329-.492 4.12-.402 8.259-.642 12.376-.904 2.675-.169 5.3-.106 7.972-.088.789.012 1.72-.068 2.148-.712.357-.552.066-1.253.352-1.76.185.049 2.338.593 2.316.546.085.49.255 1.514.763 1.754.185.073.37.099.556.102.279.004.558-.038.837-.08.044-.001.085-.017.118-.045.046-.046.001-.116-.044-.187a5.53 5.53 0 0 1-.951-3.174c-.667-.452-1.333-.973-1.905-1.54-.458-.471-.797-1.08-1.302-1.483-.528-.449-1.043-.179-1.626-.025a27.66 27.66 0 0 0-2.007.528c-1.284.398-2.569.89-3.651 1.686-.375.274-.728.57-1.172.703-.42.133-.885.126-1.326.119-2.718-.064-5.434-.198-8.126-.495-2.76-.297-4.643-.256-8.26-.799 0 .023-.003.232-.078.626h0z" class="F"/><path d="M430.615 234.602c.647 2.815 1.126 5.667 1.436 8.539" class="D E L M"/><path d="M485.411 229.969l-7.976 35.57-60.563-.92c.016-1.011.432-1.973 1.157-2.677s1.7-1.09 2.71-1.075l14.474.22 7.212-32.724c.111-.515.397-.975.808-1.303s.924-.504 1.45-.499l38.517.586c1.463.045 2.535 1.386 2.211 2.822z" class="J"/><g class="F"><path d="M406.295 316.879c.281-1.622 1.073-3.283 1.815-4.736 3.065-5.948 8.543-10.14 14.442-13.025.609-.293 1.217-.586 1.848-.809-.047.07-.095.138-.143.231v.023h-.024c.071-.046.118-.092.188-.137 2.384 2.151 4.928 4.513 7.099 6.893-1.435 1.163-3.517 2.108-4.551 2.882-2.444 1.798-4.797 3.714-7.332 5.396-3.404 2.294-7.032 3.959-11.086 4.688-1.561.278-2.378.568-2.36-.64.026-.186.053-.441.104-.766h0z"/><path d="M410.249 312.199c1.578-2.974 4.029-5.236 6.708-7.24l5.777-3.979c.54-.364 1.601-1.347 2.514-1.821l5.611 5.43c-5.817 3.536-10.999 8.151-17.38 10.657-.585.223-1.192.446-1.82.46s-1.298-.252-1.661-.769c-.569-.798-.204-1.885.251-2.738h0z"/></g></svg>