<svg xmlns="http://www.w3.org/2000/svg" width="24" height="24" fill="none" xmlns:v="https://vecta.io/nano"><path d="M20.996 11.712l1-.031a1 1 0 0 0-1.284-.927l.285.959zm-8.707-8.707l.959.285a1 1 0 0 0-.927-1.284l-.031 1zm8.422 7.748A6 6 0 0 1 19 11v2a8 8 0 0 0 2.28-.33l-.569-1.917zM19 11a6 6 0 0 1-6-6h-2a8 8 0 0 0 8 8v-2zm-6-6a6 6 0 0 1 .247-1.711L11.33 2.72A8 8 0 0 0 11 5h2zm-1-1l.257.004.063-1.999A10.19 10.19 0 0 0 12 2v2zm-8 8a8 8 0 0 1 8-8V2C6.477 2 2 6.477 2 12h2zm8 8a8 8 0 0 1-8-8H2c0 5.523 4.477 10 10 10v-2zm8-8a8 8 0 0 1-8 8v2c5.523 0 10-4.477 10-10h-2zm-.004-.257L20 12h2c0-.107-.002-.214-.005-.32l-1.999.063z" fill="#12234a"/></svg>