<svg xmlns="http://www.w3.org/2000/svg" xmlns:xlink="http://www.w3.org/1999/xlink" width="641" height="364" fill="none" xmlns:v="https://vecta.io/nano"><style><![CDATA[.B{stroke-width:.385}.C{stroke-miterlimit:10}.D{stroke:#0061fe}.E{fill:#ffde99}.F{fill:#fb8f8f}.G{fill:#0061fe}.H{stroke:#eecff8}.I{stroke:#def4ff}]]></style><path d="M70 99.464c48.083-40.313 127.312-24.152 182.971-11.532 33.802 7.662 67.972 15.821 102.792 16.533 32.371.66 57.213-8.478 86.045-21.434 18.107-8.137 31.499-20.993 48.588-30.567 17.624-9.875 36.154-18.448 56.026-22.607 34.173-7.153 61.686 2.753 77.463 33.876 15.152 29.89 17.926 64.952 15.92 97.914-1.234 20.264-4.608 40.969-10.51 60.81-19 63.848-77.938 107.461-144.559 107.461H31.638c-14.531-17.02-23.712-36.784-28.414-58.593C-10.393 208.184 20.502 140.963 70 99.464z" fill="url(#A)"/><path d="M366.847 345.448l-65.146 15.101m-3.452 0l22.866-12.08m14.669 12.943l67.735 1.725" class="B C H"/><path d="M317.59 361.429c-.832 0-.832-1.295 0-1.295s.837 1.295 0 1.295zm-23.543-5.449c-.833 0-.833-1.294 0-1.294s.837 1.294 0 1.294zm-.216 6.972c-.832 0-.832-1.295 0-1.295s.833 1.295 0 1.295zm122.945-.652c-.832 0-.832-1.294 0-1.294s.833 1.294 0 1.294zm-60.168-25.942c-.832 0-.832-1.294 0-1.294s.837 1.294 0 1.294zm28.342-13.077c-.833 0-.833-1.294 0-1.294s.833 1.294 0 1.294z" fill="#eecff8"/><path d="M197.294 360.764h-55.223m-9.06 0H20.839m146.039-5.608h-45.732" class="B C H"/><use xlink:href="#q" class="F"/><use xlink:href="#q" fill="url(#B)"/><use xlink:href="#q" fill="url(#C)"/><use xlink:href="#r" class="F"/><use xlink:href="#r" fill="url(#D)"/><use xlink:href="#r" fill="url(#E)"/><path d="M107.608 304.695c7.002.6 14.047-.327 20.73-2.511 7.615-2.489 21.52-5.781 34.308-2.17 10.738 3.029 16.929 9.354 23.664 14.415 7.028 5.276 15.829 7.614 24.565 6.644l5.639-.626a.56.56 0 0 1 .462.941c-1.704 1.755-6.933 4.81-21.951 2.308-20.299-3.383-27.064-12.08-27.064-12.08s-.483 8.697 1.933 13.046 9.181 11.597 9.181 11.597l-5.316 14.013s-3.382 1.45-8.214 0l-1.45-1.45s-.483-3.865 2.9-4.349c0 0 2.416-.966.966-5.315s-3.866-5.798-14.496-5.798-15.467-7.248-15.467-7.248-9.181.483-15.467 5.798-23.681 11.597-33.828 8.215c0 0-4.349 4.348-4.832 7.731s-.966 5.315-6.282 4.832c0 0-3.866-.483-2.899-3.383s3.383 0 4.349-3.865 1.45-8.215 1.45-8.215-6.765-2.416-5.799-14.013-3.865-17.882-10.63-16.916l-13.53 1.933s-5.798 1.933-12.08-2.416-7.248-6.765-7.248-6.765l.483-2.416s16.433-6.282 18.366-7.731 8.698-7.732 8.698-7.732 18.366 0 22.715 4.349 10.63 14.98 16.916 17.4c2.368.91 5.72 1.48 9.228 1.777z" class="F"/><path d="M91.723 297.836s-8.581 11.113-20.178 12.08l2.748 5.199s14.164-2.783 20.7-14.22l-3.27-3.059z" fill="url(#F)"/><path d="M107.608 304.695c7.002.6 14.047-.327 20.73-2.511 7.615-2.489 21.52-5.781 34.308-2.17 10.725 3.025 16.912 9.337 23.638 14.393 7.041 5.294 15.872 7.636 24.63 6.661l5.6-.621a.56.56 0 0 1 .462.941c-1.704 1.755-6.933 4.81-21.951 2.308-20.299-3.383-27.064-12.08-27.064-12.08s-.483 8.697 1.933 13.046 9.181 11.597 9.181 11.597l-5.316 14.013s-3.382 1.45-8.214 0l-1.45-1.45s-.483-3.865 2.9-4.349c0 0 2.416-.966.966-5.315s-3.866-5.798-14.496-5.798-15.467-7.248-15.467-7.248-9.181.483-15.467 5.798-23.681 11.597-33.828 8.215c0 0-4.349 4.348-4.832 7.731s-.966 5.315-6.282 4.832c0 0-3.866-.483-2.899-3.383s3.383 0 4.349-3.865 1.45-8.215 1.45-8.215-6.765-2.416-5.799-14.013-3.865-17.882-10.63-16.916l-13.53 1.933s-5.798 1.933-12.08-2.416-7.248-6.765-7.248-6.765l.483-2.416s16.433-6.282 18.366-7.731 8.698-7.732 8.698-7.732 18.366 0 22.715 4.349 10.63 14.98 16.916 17.4c2.368.91 5.72 1.48 9.228 1.777z" fill="url(#G)"/><path d="M153.461 333.36c-4.957 0-8.655-1.575-11.187-3.262 1.316-.906 2.731-1.674 4.262-2.261 4.228-1.631 8.965-1.889 13.452-2.148 4.09-.233 8.003-.052 11.619 1.605 2.972 4.137 7.472 8.961 7.472 8.961l-5.315 14.012s-3.383 1.45-8.215 0l-1.449-1.449s-.483-3.866 2.899-4.349c0 0 2.416-.966.966-5.315s-3.874-5.794-14.504-5.794z" fill="url(#H)"/><path d="M79.039 345.44l.781-3.711c2.183-.164 4.358.432 6.053 1.821-.941 1.35-1.799 2.912-1.998 4.306-.483 3.382-.966 5.315-6.282 4.832 0 0-3.866-.483-2.899-3.383.958-2.899 3.378 0 4.345-3.865z" fill="url(#I)"/><path d="M50.042 288.897l1.174-.954 1.903.565c5.656 1.83 11.528 4.811 14.358 10.312 1.368 2.666 1.95 5.617 2.2 8.611-1.609-1.036-3.52-1.432-5.617-1.135l-13.53 1.933s-5.798 1.933-12.08-2.416-7.248-6.765-7.248-6.765l.483-2.416c-.009-.004 16.425-6.286 18.357-7.735z" fill="url(#J)"/><path d="M59.788 286.985c.138.759.505 1.454.992 2.054 1.242 1.523 3.917 6.031 2.787 15.803-1.45 12.563 11.597 13.53 13.53 5.315 1.402-5.962.768-13.961.315-17.9-.177-1.523-1.091-2.852-2.446-3.568-4.862-2.575-16.317-8.042-15.178-1.704z" fill="url(#K)"/><path d="M54.874 287.93h-.966l-3.382.967-1.45 2.416 2.899 2.899 2.899.966c2.899-3.382 0-7.248 0-7.248z" fill="url(#L)"/><path d="M31.193 299.044l.483-2.416 1.553-.6s3.762 1.083 3.279 3.016c-.315 1.264-2.489 1.699-3.956 1.85-1.1-1.208-1.359-1.85-1.359-1.85z" fill="url(#M)"/><path d="M54.391 293.487c-.669 0-1.208-.866-1.208-1.933s.539-1.933 1.208-1.933 1.208.866 1.208 1.933-.539 1.933-1.208 1.933z" fill="url(#N)"/><path d="M52.217 304.605s-1.45 2.416-5.799 3.382" class="B C D"/><path d="M60.673 303.88c1.829-4.176 1.924-8.922 0-14.988.039.048.069.104.108.151 1.243 1.523 3.918 6.032 2.787 15.804-.06.535-.086 1.039-.099 1.531l-4.616.66c.958-1.208 1.527-2.493 1.821-3.158z" fill="url(#O)"/><path d="M88.703 340.125c2.416-2.9 2.416-4.832 2.416-4.832-1.45-5.799 0-7.732 0-7.732 0 4.832 2.416 7.248 2.416 7.248s12.08 4.832 21.748-5.315l10.631-11.114c6.765 0 12.08 7.732 12.08 7.732l-.527.043c-2.027.194-9.547 1.195-14.94 5.755-6.277 5.315-23.677 11.597-33.824 8.215z" fill="url(#P)"/><path d="M40.555 302.064c-.626 0-.626-.971 0-.971s.626.971 0 .971zm1.829 2.892c-.419 0-.419-.649 0-.649s.419.649 0 .649zm1.587-2.076c-.419 0-.419-.648 0-.648s.419.648 0 .648zm3.418-.287c-.206 0-.206-.322 0-.322s.211.322 0 .322zm-7.2 1.467c-.207 0-.207-.322 0-.322s.206.322 0 .322z" class="G"/><g class="B C"><g stroke="#0144b9"><path d="M95.709 299.769c-1.066 0-1.933-.866-1.933-1.933s.867-1.933 1.933-1.933 1.933.865 1.933 1.933-.867 1.933-1.933 1.933z"/><path d="M94.134 298.958l-.674.622"/></g><path d="M90.946 308.13s-5.609 6.471-13.374 7.334" class="D"/><path d="M64.629 304.678s-.431 6.04 2.589 8.197m87.148 18.984s-10.354 0-14.668-6.04" stroke="#f1d23c"/><path d="M119.852 331.858s-7.766 6.041-17.257 6.903" class="H"/><path d="M170.114 73.647h66.009v39.26h-66.009v-39.26z" class="I"/></g><path d="M173.997 68.901h66.009v39.26h-66.009v-39.26z" fill="url(#Q)"/><path d="M163.858 59.194c-13.107 0-23.729-10.624-23.729-23.729s10.622-23.729 23.729-23.729 23.729 10.624 23.729 23.729-10.622 23.729-23.729 23.729z" class="B C D"/><path d="M158.681 59.194c-13.107 0-23.729-10.624-23.729-23.729s10.622-23.729 23.729-23.729S182.41 22.36 182.41 35.465s-10.622 23.729-23.729 23.729z" fill="#def4ff"/><path d="M167.525 54.664h50.909v25.023h-50.909V54.664z" class="E"/><path d="M167.525 54.664h50.909v25.023h-50.909V54.664z" fill="url(#R)"/><path d="M193.195 67.391l25.239-12.404v24.7h-50.909V54.772l25.67 12.619z" fill="url(#S)"/><path d="M162.132 48.839h50.909v25.023h-50.909V48.839z" class="E"/><path d="M187.803 61.566l25.238-12.404v24.7h-50.909V48.947l25.671 12.619z" fill="url(#T)"/><path d="M166.662 56.821h-10.786m10.786 2.373h-10.786m10.786 2.588h-10.786" class="B C D"/><path d="M196 85.727h57.812v4.746H196v-4.746z" fill="url(#U)"/><path d="M196 93.061h57.812v4.746H196v-4.746z" fill="url(#V)"/><path d="M158.681 35.495a5.18 5.18 0 0 1-5.177-5.177 5.18 5.18 0 0 1 5.177-5.177 5.18 5.18 0 0 1 5.177 5.177 5.18 5.18 0 0 1-5.177 5.177zm-10.962 10.294c1.613-4.741 5.914-8.137 10.962-8.137s9.349 3.391 10.963 8.137h-21.925zM92.456 77.961h41.417v-9.492l4.315-9.06h-4.315v-9.491H92.456v28.043z" class="G"/><g class="B C D"><path d="M115.322 54.232H73.905v-9.492l-4.314-9.06h4.314v-9.492h41.418v28.043z"/><path d="M112.086 30.719c-.716 0-1.294-.579-1.294-1.294s.578-1.294 1.294-1.294 1.294.579 1.294 1.294-.578 1.294-1.294 1.294z"/></g><g fill="#fff"><use xlink:href="#s"/><use xlink:href="#s" x="10.355"/><use xlink:href="#s" x="-10.354"/></g><g class="B C"><path d="M115.05 99.222a12.78 12.78 0 0 1 12.999.095 12.79 12.79 0 0 0 12.999.095l.32-.186a12.78 12.78 0 0 1 12.999.095 12.79 12.79 0 0 0 12.999.095l.319-.186a12.78 12.78 0 0 1 12.999.095" class="D"/><path d="M80.16 14.325c-3.572 0-6.471-2.898-6.471-6.471s2.899-6.471 6.471-6.471 6.471 2.898 6.471 6.471-2.899 6.471-6.471 6.471zm16.61 65.793h-6.04v-6.04" stroke="#fa404b"/></g><use xlink:href="#t" class="E"/><use xlink:href="#t" fill="url(#W)"/><use xlink:href="#u" fill="#0144b9"/><use xlink:href="#u" fill="url(#X)"/><use xlink:href="#v" class="E"/><use xlink:href="#v" fill="url(#Y)"/><path d="M384.95 168.078s-48.329 79.259-66.208 101.486-37.694 56.544-37.694 56.544 12.563 17.399 15.95 15.95 2.416-1.933 2.899-4.832 67.657-73.456 79.259-92.788c11.596-19.333 14.979-20.783 14.979-20.783s41.077-14.012 43.009-41.076-22.715-28.514-22.715-28.514l-29.479 14.013z" class="G"/><path d="M372.14 197.8l-37.211 56.06" class="B C I"/><path d="M334.688 281.165c18.366-11.597 22.232-28.03 37.694-51.228 7.192-10.79 16.058-17.917 23.483-22.46 10.341-6.325 15.376-18.604 12.334-30.339-1.609-6.212-3.611-12.403-5.414-17.542l11.64-5.535s1.035.06 2.662.388l.237.095 12.943 6.575c4.315 4.194 7.628 10.864 6.873 21.455-1.933 27.064-43.01 41.077-43.01 41.077s-3.382 1.45-14.979 20.782-78.775 89.889-79.258 92.788.483 3.382-2.899 4.832c-1.623.695-5.363-2.951-8.815-6.933 8.966-12.891 31.974-44.774 46.509-53.955z" fill="url(#Z)"/><path d="M334.688 281.165c18.366-11.597 22.232-28.03 37.694-51.228s38.661-29.48 38.661-29.48c1.51-10.268-3.948-28.574-8.258-40.861l11.64-5.535s1.035.06 2.662.388l.237.095 12.943 6.575c4.315 4.194 7.628 10.864 6.873 21.455-1.933 27.064-43.01 41.077-43.01 41.077s-3.382 1.45-14.979 20.782-78.775 89.889-79.258 92.788.483 3.382-2.899 4.832c-1.623.695-5.363-2.951-8.815-6.933 8.966-12.891 31.974-44.774 46.509-53.955z" fill="url(#a)"/><path d="M255.313 168.743s-19.212-1.631-22.111-.664c0 0-.483-1.45 3.383-3.383s11.113-.966 11.113-.966l9.181.483-1.566 4.53z" fill="url(#b)"/><use xlink:href="#w" class="E"/><use xlink:href="#w" fill="url(#c)"/><use xlink:href="#x" fill="#f1d23c"/><use xlink:href="#x" fill="url(#d)"/><path d="M348.701 97.039s14.241 44.916 20.299 57.027c3.382 6.764 10.147 14.012 10.147 14.012 7.248 1.45 25.131-7.248 25.131-7.248l-19.333-45.913-36.244-17.878z" class="F"/><use xlink:href="#y" class="E"/><use xlink:href="#y" fill="url(#e)"/><use xlink:href="#z" class="E"/><use xlink:href="#z" fill="url(#f)"/><path d="M322.707 58.81c-1.225-4.707-1.877-11.347-2.218-17.714 3.551-3.719 18.548.371 18.548.371v.483l2.899 13.047-13.047 7.248-6.182-3.434z" fill="url(#g)"/><use xlink:href="#AA" fill="#241921"/><use xlink:href="#AA" fill="url(#h)"/><path d="M343.385 73.358s7.249-3.382 10.148-11.597 10.147-9.181 10.147-9.181 1.933-.483.966 3.382 1.45 10.147 10.631 11.597 69.107 12.563 77.326 27.064c0 0 2.416-6.282 3.382.966v5.316s2.899-4.349 3.382 0-2.416 4.832-2.416 4.832l-1.449-1.45s-19.333 9.181-17.4 14.979c0 0-2.899 2.416-3.382-3.865 0 0-.484 1.932-4.349.483l-.483-2.416s-13.53-2.416-21.266-2.899c0 0 15.95 23.198 21.749 26.58s38.66 28.997 38.66 28.997l43.985 25.614s-19.333 28.996-23.198 29.479l-7.248-4.348s-7.248 4.348-11.597 12.08-14.979 18.849-34.795 17.883c0 0 4.349-23.199-19.333-64.758s-56.543-62.83-68.627-80.708c-12.081-17.883-11.114-26.098-11.114-26.098l6.281-1.933z" fill="#f1d23c"/><path d="M343.385 73.358s7.249-3.382 10.148-11.597 10.147-9.181 10.147-9.181 1.933-.483.966 3.382 1.45 10.147 10.631 11.597 69.107 12.563 77.326 27.064c0 0 2.416-6.282 3.382.966v5.316s2.899-4.349 3.382 0-2.416 5.315-2.416 5.315l-.966-1.45s-19.816 8.698-17.883 14.496c0 0-2.899 2.416-3.382-3.865 0 0-.484 1.932-4.349.483l-.483-2.416s-13.53-2.416-21.266-2.899c0 0 15.95 23.198 21.749 26.58s38.66 28.997 38.66 28.997l43.985 25.614s-19.333 28.996-23.198 29.479l-7.248-4.348s-7.248 4.348-11.597 12.08-14.979 18.849-34.795 17.883c0 0 4.349-23.199-19.333-64.758s-56.543-62.83-68.627-80.708c-12.081-17.883-11.114-26.098-11.114-26.098l6.281-1.933z" fill="url(#i)"/><path d="M337.104 75.29l6.281-1.933s7.248-3.382 10.147-11.597 10.148-9.181 10.148-9.181 1.933-.483.966 3.382 1.45 10.147 10.631 11.597c2.127.337 6.972 1.191 13.262 2.485a224.37 224.37 0 0 1-.747 10.061c-1.695 17.374-5.845 34.148-12.416 49.969-11.528-11.403-21.572-20.407-27.167-28.686-12.072-17.883-11.105-26.098-11.105-26.098z" fill="url(#j)"/><path d="M550.951 161.555s-54.61-11.597-99.069 14.496c-6.511 3.823-61.375 57.51-181.227 90.372-48.446 13.284-173.013 30.929-173.013 30.929" stroke="#0144b9" class="B C"/><use xlink:href="#AB" class="E"/><use xlink:href="#AB" fill="url(#k)"/><path d="M222.779 166.275H335.59a1.64 1.64 0 0 0 1.639-1.639v-.393a1.64 1.64 0 0 0-1.639-1.639H222.779a1.64 1.64 0 0 0-1.639 1.639v.393a1.64 1.64 0 0 0 1.639 1.639z" fill="#241921"/><path d="M222.779 166.275h66.863a1.64 1.64 0 0 0 1.64-1.639v-.393a1.64 1.64 0 0 0-1.64-1.639h-66.863a1.64 1.64 0 0 0-1.64 1.639v.393c0 .901.734 1.639 1.64 1.639zm-17.486-61.264h65.819a2.05 2.05 0 0 1 1.95 1.411l17.331 52.557a2.06 2.06 0 0 1-1.95 2.701h-65.82a2.05 2.05 0 0 1-1.95-1.411l-17.33-52.557c-.44-1.333.552-2.701 1.95-2.701z" class="G"/><g class="B C D"><use xlink:href="#AC"/><use xlink:href="#AC" x="-73.361" y="0.151"/><path d="M310.191 165.507h5.372a.68.68 0 0 0 .681-.682v-.164a.68.68 0 0 0-.681-.681h-5.372a.68.68 0 0 0-.681.681v.164c0 .376.306.682.681.682zm-15.316 0h.164a.68.68 0 0 0 .682-.682v-.164a.68.68 0 0 0-.682-.681h-.164a.68.68 0 0 0-.681.681v.164c0 .376.306.682.681.682z"/></g><path d="M204.085 105.404a2.03 2.03 0 0 1 1.208-.393h65.819a2.05 2.05 0 0 1 1.95 1.411l17.128 51.94-86.105-52.958z" fill="url(#l)"/><path d="M215.147 109.024l20.829 12.865" stroke="#fff" class="B C"/><use xlink:href="#AD" class="E"/><use xlink:href="#AD" fill="url(#m)"/><path d="M260.266 163.729l13.53 2.416h.09c2.49 0 4.953.479 7.287 1.346 4.138 1.541 11.571 3.064 13.03 4.599a245.48 245.48 0 0 1-12.188-.629s-17.883-1.45-22.715-2.416c0 0-10.631-12.08-12.081-12.08s5.311-2.416 13.047 6.764z" class="E"/><path d="M482.57 216.891s6.765-5.799 7.248-1.933-.966 5.798 0 6.281l-7.248-4.348z" fill="url(#n)"/><path d="M488.869 213.629l-.03.039c-1.998-.436-6.265 3.222-6.265 3.222s-7.248 4.349-11.597 12.081c-.871 1.553-2.006 3.24-3.408 4.944l-30.468-57.618 51.768 37.332z" fill="url(#o)"/><path d="M449.707 179.192l2.015-2.416s3.3-2.899 3.3-5.798c0-2.378 9.751 3.041 16.459 2.403-2.303 2.998-6.7 7.878-7.757 8.231-1.449.484-1.449-.966-1.449-.966s-1.45 1.45-3.866 1.933-1.933-.483-3.866 0-4.836-3.387-4.836-3.387z" fill="url(#p)"/><g class="B C"><path d="M343.627 77.465s.966 16.433 29.523 42.423" stroke="#fff"/><path d="M336.379 19.472s1.45 7.731 7.248 11.597m-3.865-9.665s2.416 6.282 11.596 10.63" class="D"/><path d="M283.46 324.658s5.798 10.147 13.046 14.496m231.731-102.211s-1.221-8.128-6.653-12.037" class="I"/><path d="M638.938 259.145c2.148 2.835 2.062 7.145-.203 9.888-2.614 3.167-7.36 4.008-9.828 7.287-1.881 2.498-1.963 6.204-.194 8.784M20.839 239.963c-1.786 0-3.236-1.448-3.236-3.235a3.24 3.24 0 0 1 3.236-3.236 3.24 3.24 0 0 1 3.236 3.236c0 1.787-1.45 3.235-3.236 3.235z" class="D"/><path d="M582.557 110.475l4.166 1.121-1.121 4.166-4.166-1.121 1.121-4.166zM240.222 212.783s-15.532-17.257-37.967-7.766m345.146 70.755l6.903 10.355M489.589 15.619l-6.471 4.746" stroke="#fa404b"/><path d="M76.131 173.549c-5.009 1.208-10.669-1.113-13.392-5.492-.997-1.605-1.618-3.426-2.623-5.031-1.855-2.955-5.044-5.039-8.495-5.552" class="D"/></g><defs><radialGradient id="A" cx="0" cy="0" r="1" gradientTransform="translate(351.924 32.6014) rotate(180) scale(435.556 435.556)" xlink:href="#AE"><stop stop-color="#6d93f7"/><stop offset=".901" stop-color="#fff" stop-opacity="0"/></radialGradient><radialGradient id="B" cx="0" cy="0" r="1" gradientTransform="matrix(-55.7191,6.8236217466371285e-15,-6.823585007233154e-15,-55.7188,52.2121,359.144)" xlink:href="#AE"><stop offset=".323" stop-color="#c184a8" stop-opacity=".21"/><stop offset=".917" stop-color="#0061fe"/></radialGradient><radialGradient id="C" cx="0" cy="0" r="1" gradientTransform="matrix(-23.6386,2.8948935826324625e-15,-2.894881336164471e-15,-23.6385,56.7896,346.874)" xlink:href="#AE"><stop offset=".104" stop-color="#ffde99"/><stop offset=".106" stop-color="#ffde99" stop-opacity=".999"/><stop offset=".268" stop-color="#e9bd9e" stop-opacity=".817"/><stop offset=".435" stop-color="#d7a4a3" stop-opacity=".631"/><stop offset=".609" stop-color="#cb92a6" stop-opacity=".437"/><stop offset=".792" stop-color="#c387a7" stop-opacity=".233"/><stop offset="1" stop-color="#c184a8" stop-opacity="0"/></radialGradient><radialGradient id="D" cx="0" cy="0" r="1" gradientTransform="matrix(-61.8719,7.577122429216511e-15,-7.577122429216511e-15,-61.8719,135.66,373.612)" xlink:href="#AE"><stop offset=".323" stop-color="#c184a8" stop-opacity=".21"/><stop offset=".917" stop-color="#0061fe"/></radialGradient><radialGradient id="E" cx="0" cy="0" r="1" gradientTransform="matrix(-40.0445,4.904036874845619e-15,-4.904036874845619e-15,-40.0445,133.891,357.679)" xlink:href="#AE"><stop offset=".104" stop-color="#ffde99"/><stop offset=".106" stop-color="#ffde99" stop-opacity=".999"/><stop offset=".268" stop-color="#e9bd9e" stop-opacity=".817"/><stop offset=".435" stop-color="#d7a4a3" stop-opacity=".631"/><stop offset=".609" stop-color="#cb92a6" stop-opacity=".437"/><stop offset=".792" stop-color="#c387a7" stop-opacity=".233"/><stop offset="1" stop-color="#c184a8" stop-opacity="0"/></radialGradient><radialGradient id="F" cx="0" cy="0" r="1" gradientTransform="translate(82.339 287.447) rotate(180) scale(33.064)" xlink:href="#AE"><stop offset=".323" stop-color="#c184a8" stop-opacity=".21"/><stop offset=".917" stop-color="#0061fe"/></radialGradient><radialGradient id="G" cx="0" cy="0" r="1" gradientTransform="translate(100.136 332.935) rotate(-167.214) scale(190.483 69.5969)" xlink:href="#AE"><stop offset=".323" stop-color="#c184a8" stop-opacity=".21"/><stop offset=".917" stop-color="#0061fe"/></radialGradient><radialGradient id="H" cx="0" cy="0" r="1" gradientTransform="translate(166.49 355.664) rotate(180) scale(38.2576 38.2578)" xlink:href="#AE"><stop offset=".104" stop-color="#ffde99"/><stop offset=".106" stop-color="#ffde99" stop-opacity=".999"/><stop offset=".268" stop-color="#e9bd9e" stop-opacity=".817"/><stop offset=".435" stop-color="#d7a4a3" stop-opacity=".631"/><stop offset=".609" stop-color="#cb92a6" stop-opacity=".437"/><stop offset=".792" stop-color="#c387a7" stop-opacity=".233"/><stop offset="1" stop-color="#c184a8" stop-opacity="0"/></radialGradient><radialGradient id="I" cx="0" cy="0" r="1" gradientTransform="translate(80.9627 356.214) rotate(180) scale(23.9659 23.9657)" xlink:href="#AE"><stop offset=".104" stop-color="#ffde99"/><stop offset=".106" stop-color="#ffde99" stop-opacity=".999"/><stop offset=".268" stop-color="#e9bd9e" stop-opacity=".817"/><stop offset=".435" stop-color="#d7a4a3" stop-opacity=".631"/><stop offset=".609" stop-color="#cb92a6" stop-opacity=".437"/><stop offset=".792" stop-color="#c387a7" stop-opacity=".233"/><stop offset="1" stop-color="#c184a8" stop-opacity="0"/></radialGradient><radialGradient id="J" cx="0" cy="0" r="1" gradientTransform="translate(49.3175 310.134) rotate(-162.513) scale(55.4056 37.2941)" xlink:href="#AE"><stop offset=".104" stop-color="#ffde99"/><stop offset=".106" stop-color="#ffde99" stop-opacity=".999"/><stop offset=".268" stop-color="#e9bd9e" stop-opacity=".817"/><stop offset=".435" stop-color="#d7a4a3" stop-opacity=".631"/><stop offset=".609" stop-color="#cb92a6" stop-opacity=".437"/><stop offset=".792" stop-color="#c387a7" stop-opacity=".233"/><stop offset="1" stop-color="#c184a8" stop-opacity="0"/></radialGradient><radialGradient id="K" cx="0" cy="0" r="1" gradientTransform="translate(72.908 319.404) rotate(180) scale(30.1489)" xlink:href="#AE"><stop stop-color="#0061fe"/><stop offset=".018" stop-color="#1b66f2"/><stop offset=".048" stop-color="#466edf"/><stop offset=".083" stop-color="#6c75ce"/><stop offset=".12" stop-color="#8d7bbf"/><stop offset=".16" stop-color="#a980b3"/><stop offset=".206" stop-color="#c084a9"/><stop offset=".259" stop-color="#d187a1"/><stop offset=".324" stop-color="#dd899c"/><stop offset=".413" stop-color="#e48b99"/><stop offset=".639" stop-color="#e68b98"/><stop offset="1" stop-color="#fb8f8f" stop-opacity="0"/></radialGradient><radialGradient id="L" cx="0" cy="0" r="1" gradientTransform="translate(57.2946 291.247) rotate(180) scale(8.08751)" xlink:href="#AE"><stop stop-color="#0144b9"/><stop offset=".029" stop-color="#0c47b7" stop-opacity=".961"/><stop offset=".24" stop-color="#5c5faa" stop-opacity=".669"/><stop offset=".391" stop-color="#8e6ea1" stop-opacity=".461"/><stop offset=".465" stop-color="#a1749e" stop-opacity=".359"/><stop offset=".487" stop-color="#a7769d" stop-opacity=".344"/><stop offset=".637" stop-color="#cb8197" stop-opacity=".244"/><stop offset=".777" stop-color="#e68993" stop-opacity=".15"/><stop offset=".902" stop-color="#f58d90" stop-opacity=".066"/><stop offset="1" stop-color="#fb8f8f" stop-opacity="0"/></radialGradient><radialGradient id="M" cx="0" cy="0" r="1" gradientTransform="translate(22.9749 316.962) rotate(180) scale(24.7184 24.7204)" xlink:href="#AE"><stop offset=".318" stop-color="#fb8f8f" stop-opacity="0"/><stop offset=".385" stop-color="#f58d90" stop-opacity=".098"/><stop offset=".47" stop-color="#e58993" stop-opacity=".224"/><stop offset=".566" stop-color="#cb8197" stop-opacity=".364"/><stop offset=".67" stop-color="#a6769d" stop-opacity=".516"/><stop offset=".779" stop-color="#7768a5" stop-opacity=".676"/><stop offset=".892" stop-color="#3f57af" stop-opacity=".841"/><stop offset="1" stop-color="#0144b9"/></radialGradient><radialGradient id="N" cx="0" cy="0" r="1" gradientTransform="translate(55.1417 301.548) rotate(180) scale(10.73 10.7301)" xlink:href="#AE"><stop offset=".318" stop-color="#fb8f8f" stop-opacity="0"/><stop offset=".385" stop-color="#f58d90" stop-opacity=".098"/><stop offset=".47" stop-color="#e58993" stop-opacity=".224"/><stop offset=".566" stop-color="#cb8197" stop-opacity=".364"/><stop offset=".67" stop-color="#a6769d" stop-opacity=".516"/><stop offset=".779" stop-color="#7768a5" stop-opacity=".676"/><stop offset=".892" stop-color="#3f57af" stop-opacity=".841"/><stop offset="1" stop-color="#0144b9"/></radialGradient><radialGradient id="O" cx="0" cy="0" r="1" gradientTransform="translate(58.373 298.134) rotate(77.9118) scale(13.1852 6.9649)" xlink:href="#AE"><stop offset=".318" stop-color="#fb8f8f" stop-opacity="0"/><stop offset=".385" stop-color="#f58d90" stop-opacity=".098"/><stop offset=".47" stop-color="#e58993" stop-opacity=".224"/><stop offset=".566" stop-color="#cb8197" stop-opacity=".364"/><stop offset=".67" stop-color="#a6769d" stop-opacity=".516"/><stop offset=".779" stop-color="#7768a5" stop-opacity=".676"/><stop offset=".892" stop-color="#3f57af" stop-opacity=".841"/><stop offset="1" stop-color="#0144b9"/></radialGradient><radialGradient id="P" cx="0" cy="0" r="1" gradientTransform="translate(123.817 354.443) rotate(180) scale(64.5551 64.5553)" xlink:href="#AE"><stop offset=".323" stop-color="#c184a8" stop-opacity=".21"/><stop offset=".917" stop-color="#0061fe"/></radialGradient><radialGradient id="Q" cx="0" cy="0" r="1" gradientTransform="translate(204.456 29.6587) rotate(180) scale(179.85 179.85)" xlink:href="#AE"><stop stop-color="#0061fe"/><stop offset=".028" stop-color="#106cfe" stop-opacity=".972"/><stop offset=".122" stop-color="#408bfe" stop-opacity=".878"/><stop offset=".221" stop-color="#6aa7fe" stop-opacity=".779"/><stop offset=".324" stop-color="#8ebfff" stop-opacity=".676"/><stop offset=".432" stop-color="#abd2ff" stop-opacity=".568"/><stop offset=".546" stop-color="#c2e1ff" stop-opacity=".454"/><stop offset=".67" stop-color="#d2ecff" stop-opacity=".33"/><stop offset=".809" stop-color="#dbf2ff" stop-opacity=".191"/><stop offset="1" stop-color="#def4ff" stop-opacity="0"/></radialGradient><radialGradient id="R" cx="0" cy="0" r="1" gradientTransform="translate(201.401 50.8079) rotate(180) scale(36.71)" xlink:href="#AE"><stop stop-color="#fb8f8f"/><stop offset="1" stop-color="#f9c1da" stop-opacity="0"/></radialGradient><radialGradient id="S" cx="0" cy="0" r="1" gradientTransform="translate(196.604 39.4276) rotate(180) scale(56.6215)" xlink:href="#AE"><stop stop-color="#fb8f8f"/><stop offset="1" stop-color="#f9c1da" stop-opacity="0"/></radialGradient><radialGradient id="T" cx="0" cy="0" r="1" gradientTransform="translate(191.211 33.6032) rotate(180) scale(56.6215)" xlink:href="#AE"><stop stop-color="#fb8f8f"/><stop offset="1" stop-color="#f9c1da" stop-opacity="0"/></radialGradient><radialGradient id="U" cx="0" cy="0" r="1" gradientTransform="translate(204.279 76.739) rotate(180) scale(133.216 87.4867)" xlink:href="#AE"><stop stop-color="#0061fe"/><stop offset=".028" stop-color="#106cfe" stop-opacity=".972"/><stop offset=".122" stop-color="#408bfe" stop-opacity=".878"/><stop offset=".221" stop-color="#6aa7fe" stop-opacity=".779"/><stop offset=".324" stop-color="#8ebfff" stop-opacity=".676"/><stop offset=".432" stop-color="#abd2ff" stop-opacity=".568"/><stop offset=".546" stop-color="#c2e1ff" stop-opacity=".454"/><stop offset=".67" stop-color="#d2ecff" stop-opacity=".33"/><stop offset=".809" stop-color="#dbf2ff" stop-opacity=".191"/><stop offset="1" stop-color="#def4ff" stop-opacity="0"/></radialGradient><radialGradient id="V" cx="0" cy="0" r="1" gradientTransform="translate(204.279 84.0732) rotate(180) scale(133.216 87.4864)" xlink:href="#AE"><stop stop-color="#0061fe"/><stop offset=".028" stop-color="#106cfe" stop-opacity=".972"/><stop offset=".122" stop-color="#408bfe" stop-opacity=".878"/><stop offset=".221" stop-color="#6aa7fe" stop-opacity=".779"/><stop offset=".324" stop-color="#8ebfff" stop-opacity=".676"/><stop offset=".432" stop-color="#abd2ff" stop-opacity=".568"/><stop offset=".546" stop-color="#c2e1ff" stop-opacity=".454"/><stop offset=".67" stop-color="#d2ecff" stop-opacity=".33"/><stop offset=".809" stop-color="#dbf2ff" stop-opacity=".191"/><stop offset="1" stop-color="#def4ff" stop-opacity="0"/></radialGradient><radialGradient id="W" cx="0" cy="0" r="1" gradientTransform="matrix(-60.1541,7.36675260205898e-15,-7.36675260205898e-15,-60.1541,538.68,204.151)" xlink:href="#AE"><stop stop-color="#fa404b"/><stop offset=".025" stop-color="#fa484f" stop-opacity=".975"/><stop offset=".192" stop-color="#fc7565" stop-opacity=".808"/><stop offset=".359" stop-color="#fd9b78" stop-opacity=".641"/><stop offset=".524" stop-color="#feb886" stop-opacity=".476"/><stop offset=".688" stop-color="#fecd91" stop-opacity=".312"/><stop offset=".847" stop-color="#ffda97" stop-opacity=".153"/><stop offset="1" stop-color="#ffde99" stop-opacity="0"/></radialGradient><radialGradient id="X" cx="0" cy="0" r="1" gradientTransform="matrix(-114.338,1.4002366572091007e-14,-1.4002366572091007e-14,-114.338,444.304,186.082)" xlink:href="#AE"><stop offset=".005" stop-color="#241921"/><stop offset="1" stop-color="#0061fe" stop-opacity="0"/></radialGradient><radialGradient id="Y" cx="0" cy="0" r="1" gradientTransform="matrix(-40.8481,5.0024494916251e-15,-5.0024494916251e-15,-40.8481,297.43,344.311)" xlink:href="#AE"><stop stop-color="#fa404b"/><stop offset=".025" stop-color="#fa484f" stop-opacity=".975"/><stop offset=".192" stop-color="#fc7565" stop-opacity=".808"/><stop offset=".359" stop-color="#fd9b78" stop-opacity=".641"/><stop offset=".524" stop-color="#feb886" stop-opacity=".476"/><stop offset=".688" stop-color="#fecd91" stop-opacity=".312"/><stop offset=".847" stop-color="#ffda97" stop-opacity=".153"/><stop offset="1" stop-color="#ffde99" stop-opacity="0"/></radialGradient><radialGradient id="Z" cx="0" cy="0" r="1" gradientTransform="translate(496.681 134.438) rotate(180) scale(197.717)" xlink:href="#AE"><stop offset=".005" stop-color="#241921"/><stop offset="1" stop-color="#0061fe" stop-opacity="0"/></radialGradient><radialGradient id="a" cx="0" cy="0" r="1" gradientTransform="translate(363.725 362.257) rotate(180) scale(121.136)" xlink:href="#AE"><stop offset=".005" stop-color="#241921"/><stop offset="1" stop-color="#0061fe" stop-opacity="0"/></radialGradient><radialGradient id="b" cx="0" cy="0" r="1" gradientTransform="translate(257.505 161.725) rotate(180) scale(25.9455 25.9459)" xlink:href="#AE"><stop stop-color="#fa404b"/><stop offset=".025" stop-color="#fa484f"/><stop offset=".192" stop-color="#fc7565"/><stop offset=".359" stop-color="#fd9b78"/><stop offset=".524" stop-color="#feb886"/><stop offset=".688" stop-color="#fecd91"/><stop offset=".847" stop-color="#ffda97"/><stop offset="1" stop-color="#ffde99"/></radialGradient><radialGradient id="c" cx="0" cy="0" r="1" gradientTransform="matrix(-24.51357628132366,1.974899212548813,-0.9519876661995252,-11.816614299087703,303.921,164.395)" xlink:href="#AE"><stop stop-color="#fa404b"/><stop offset=".025" stop-color="#fa484f" stop-opacity=".975"/><stop offset=".192" stop-color="#fc7565" stop-opacity=".808"/><stop offset=".359" stop-color="#fd9b78" stop-opacity=".641"/><stop offset=".524" stop-color="#feb886" stop-opacity=".476"/><stop offset=".688" stop-color="#fecd91" stop-opacity=".312"/><stop offset=".847" stop-color="#ffda97" stop-opacity=".153"/><stop offset="1" stop-color="#ffde99" stop-opacity="0"/></radialGradient><radialGradient id="d" cx="0" cy="0" r="1" gradientTransform="matrix(-111.004,1.359406932925528e-14,-1.359406932925528e-14,-111.004,369.585,95.6133)" xlink:href="#AE"><stop stop-color="#fb8f8f"/><stop offset="1" stop-color="#f9c1da" stop-opacity="0"/></radialGradient><radialGradient id="e" cx="0" cy="0" r="1" gradientTransform="matrix(-27.6686,3.388426242688846e-15,-3.3884139962208544e-15,-27.6685,332.042,64.8465)" xlink:href="#AE"><stop stop-color="#fa404b"/><stop offset=".025" stop-color="#fa484f" stop-opacity=".975"/><stop offset=".192" stop-color="#fc7565" stop-opacity=".808"/><stop offset=".359" stop-color="#fd9b78" stop-opacity=".641"/><stop offset=".524" stop-color="#feb886" stop-opacity=".476"/><stop offset=".688" stop-color="#fecd91" stop-opacity=".312"/><stop offset=".847" stop-color="#ffda97" stop-opacity=".153"/><stop offset="1" stop-color="#ffde99" stop-opacity="0"/></radialGradient><radialGradient id="f" cx="0" cy="0" r="1" gradientTransform="matrix(-36.0568,4.4156844707496285e-15,-4.4156844707496285e-15,-36.0568,354.324,28.342)" xlink:href="#AE"><stop stop-color="#fa404b"/><stop offset=".025" stop-color="#fa484f" stop-opacity=".975"/><stop offset=".192" stop-color="#fc7565" stop-opacity=".808"/><stop offset=".359" stop-color="#fd9b78" stop-opacity=".641"/><stop offset=".524" stop-color="#feb886" stop-opacity=".476"/><stop offset=".688" stop-color="#fecd91" stop-opacity=".312"/><stop offset=".847" stop-color="#ffda97" stop-opacity=".153"/><stop offset="1" stop-color="#ffde99" stop-opacity="0"/></radialGradient><radialGradient id="g" cx="0" cy="0" r="1" gradientTransform="translate(322.825 32.7369) rotate(180) scale(26.8846)" xlink:href="#AE"><stop stop-color="#fa404b"/><stop offset=".025" stop-color="#fa484f" stop-opacity=".975"/><stop offset=".192" stop-color="#fc7565" stop-opacity=".808"/><stop offset=".359" stop-color="#fd9b78" stop-opacity=".641"/><stop offset=".524" stop-color="#feb886" stop-opacity=".476"/><stop offset=".688" stop-color="#fecd91" stop-opacity=".312"/><stop offset=".847" stop-color="#ffda97" stop-opacity=".153"/><stop offset="1" stop-color="#ffde99" stop-opacity="0"/></radialGradient><radialGradient id="h" cx="0" cy="0" r="1" gradientTransform="matrix(-76.8332,9.409353244824843e-15,-9.409353244824843e-15,-76.8332,285.22,22.4813)" xlink:href="#AE"><stop stop-color="#0061fe"/><stop offset=".995" stop-color="#241921"/></radialGradient><radialGradient id="i" cx="0" cy="0" r="1" gradientTransform="translate(472.141 102.206) rotate(180) scale(131.949 131.949)" xlink:href="#AE"><stop stop-color="#fb8f8f"/><stop offset="1" stop-color="#f9c1da" stop-opacity="0"/></radialGradient><radialGradient id="j" cx="0" cy="0" r="1" gradientTransform="translate(331.127 72.9046) rotate(180) scale(65.893)" xlink:href="#AE"><stop stop-color="#fff"/><stop offset="1" stop-color="#f1d23c" stop-opacity="0"/></radialGradient><radialGradient id="k" cx="0" cy="0" r="1" gradientTransform="matrix(-73.0885,8.950759757948131e-15,-8.950759757948131e-15,-73.0885,475.437,95.4914)" xlink:href="#AE"><stop stop-color="#fa404b"/><stop offset=".025" stop-color="#fa484f" stop-opacity=".975"/><stop offset=".192" stop-color="#fc7565" stop-opacity=".808"/><stop offset=".359" stop-color="#fd9b78" stop-opacity=".641"/><stop offset=".524" stop-color="#feb886" stop-opacity=".476"/><stop offset=".688" stop-color="#fecd91" stop-opacity=".312"/><stop offset=".847" stop-color="#ffda97" stop-opacity=".153"/><stop offset="1" stop-color="#ffde99" stop-opacity="0"/></radialGradient><linearGradient id="l" x1="230.506" y1="54.128" x2="251.503" y2="152.289" xlink:href="#AE"><stop offset=".179" stop-color="#f9c1da"/><stop offset="1" stop-color="#eecff8" stop-opacity="0"/></linearGradient><radialGradient id="m" cx="0" cy="0" r="1" gradientTransform="matrix(-10.2962,1.260920837338098e-15,-1.2609453302740808e-15,-10.2964,258.329,164.106)" xlink:href="#AE"><stop stop-color="#fa404b"/><stop offset=".025" stop-color="#fa484f" stop-opacity=".975"/><stop offset=".192" stop-color="#fc7565" stop-opacity=".808"/><stop offset=".359" stop-color="#fd9b78" stop-opacity=".641"/><stop offset=".524" stop-color="#feb886" stop-opacity=".476"/><stop offset=".688" stop-color="#fecd91" stop-opacity=".312"/><stop offset=".847" stop-color="#ffda97" stop-opacity=".153"/><stop offset="1" stop-color="#ffde99" stop-opacity="0"/></radialGradient><radialGradient id="n" cx="0" cy="0" r="1" gradientTransform="translate(491.742 213.972) rotate(180) scale(16.7748 16.7744)" xlink:href="#AE"><stop stop-color="#fb8f8f"/><stop offset="1" stop-color="#f9c1da" stop-opacity="0"/></radialGradient><radialGradient id="o" cx="0" cy="0" r="1" gradientTransform="translate(486.791 204.212) rotate(180) scale(33.2686 33.2685)" xlink:href="#AE"><stop stop-color="#fff"/><stop offset="1" stop-color="#f1d23c" stop-opacity="0"/></radialGradient><radialGradient id="p" cx="0" cy="0" r="1" gradientTransform="translate(466.646 169.844) rotate(180) scale(17.2838)" xlink:href="#AE"><stop stop-color="#fa404b"/><stop offset=".025" stop-color="#fa484f" stop-opacity=".975"/><stop offset=".192" stop-color="#fc7565" stop-opacity=".808"/><stop offset=".359" stop-color="#fd9b78" stop-opacity=".641"/><stop offset=".524" stop-color="#feb886" stop-opacity=".476"/><stop offset=".688" stop-color="#fecd91" stop-opacity=".312"/><stop offset=".847" stop-color="#ffda97" stop-opacity=".153"/><stop offset="1" stop-color="#ffde99" stop-opacity="0"/></radialGradient><path id="q" d="M80.488 334.326s-1.45 2.416-9.664 2.9-8.215 8.214-13.047 8.214-2.416-4.349-.483-6.282 5.798-5.315 5.798-5.315 6.282-1.449 8.215-3.866 7.248-4.348 7.248-4.348l1.933 8.697z"/><path id="r" d="M132.679 324.175s1.932 5.315 6.281 10.63c0 0 2.416 1.45-1.449 3.866s-9.181 4.832-9.664 9.181c0 0-.484 1.932 1.932 2.416s6.282-1.933 6.282-1.933 3.866-3.866 7.731-5.799 7.732-3.865 7.732-6.281-4.349-9.664-4.349-9.664-10.631-9.664-14.496-2.416z"/><path id="s" d="M113.596 67.175a3.02 3.02 0 1 1 0-6.04 3.02 3.02 0 1 1 0 6.04z"/><path id="t" d="M519.298 225.105s5.789-1.704 11.937-1.678c2.503.008 4.91-.937 6.692-2.697.72-.712 1.458-1.648 2.075-2.506.897-1.243 2.64-1.498 3.853-.561 7.079 5.488 27.797 22.926 26.192 37.823a1.17 1.17 0 0 1-2.028.652c-2.783-3.094-9.836-10.247-25.04-22.34 0 0-10.631 0-16.917 4.832s-6.764-13.525-6.764-13.525z"/><path id="u" d="M396.547 217.374s35.278 43.976 58.476 54.61c0 0 69.107-25.614 76.359-34.794 0 0-2.899-13.047-9.181-14.497s-43.251 5.557-58.235 21.99c0 0-17.399-63.308-39.143-68.623-21.753-5.324-28.276 41.314-28.276 41.314z"/><path id="v" d="M295.06 338.192s-7.731 7.248-11.113 13.047c-1.104 1.889-1.795 3.317-2.226 4.387-1.653 4.086-6.472 5.945-10.346 3.849-1.549-.837-25.635-12.844-35.61-29.049-.453-.733.25-1.799 1.044-1.467 7.028 2.951 14.289 5.372 23.944 9.233 11.494 4.599 17.883-4.832 23.682-12.08 5.794-7.253 10.625 12.08 10.625 12.08z"/><path id="w" d="M350.15 161.313s.967 2.416-2.416 4.349-28.03 8.698-65.724 5.799c0 0-19.816-3.383-22.715-2.416 0 0-10.63-12.08-12.08-12.08s5.315-2.417 13.047 6.764l13.529 2.416h16.434l6.281-1.932s24.648-5.799 40.594-17.883c15.954-12.08 13.05 14.983 13.05 14.983z"/><path id="x" d="M344.835 93.656s-6.281 40.11-5.315 45.426c0 0-3.382-1.45-4.349 0s0 3.865 0 3.865l-2.416 3.383s14.979 17.399 17.4 17.399c1.622 0 4.116-3.486 5.583-5.776.608-.954.716-2.158.211-3.167-.263-.527-.479-1.243-.479-2.17 0-2.416 5.798-11.597 6.765-39.627s-17.4-19.333-17.4-19.333z"/><path id="y" d="M332.755 59.828s5.798 4.349 13.047 21.749l6.764-6.282 4.832-7.248.967-5.315s-12.563-8.215-11.114-20.782-22.71 1.445-14.496 17.878z"/><path id="z" d="M320.192 21.646s-.967 37.694 5.315 43.009c0 0 9.664.483 14.013-3.866 5.798-5.798 7.248-12.08 7.248-12.08v-5.798l8.698-3.382 3.865-12.08-6.281-7.248-17.4-2.416-11.114.483-4.344 3.378z"/><path id="AA" d="M334.731 26.836c-.337-1.445-1.165-2.748-2.382-3.603-.975-.682-2.062-1.018-2.739.104-1.45 2.416-4.832 8.698-11.597 5.798s-2.416-12.563-2.416-12.563-3.382 4.349-1.933 7.248c0 0-6.765-6.282-.483-15.95s14.979 5.798 17.883 0 7.731-9.181 12.08-5.315 3.865 5.315 3.865 5.315-.966-3.866 2.9-3.382 5.798 1.933 10.63.483 15.467.966 9.664 16.916S357.64 38.321 359.09 41.22s3.865 8.698-4.349 8.215-7.434-3.033-7.434-3.033l-.781-3.249s7.248-2.416 2.899-8.214-6.764 0-6.764 0-4.832-4.349-6.765-10.147c0 0 1.933 7.731 4.349 9.664 0 0-4.125-1.652-5.514-7.619z"/><path id="AB" d="M438.106 119.749s19.109 30.856 23.086 40.801c0 0-6.657 3.663-8.106 5.596s-4.349 9.181-9.181 11.113c0 0 3.382 2.9 5.798.967l2.416-1.933-2.416 2.899s2.9 3.866 4.832 3.383 1.45.483 3.866 0 3.866-1.933 3.866-1.933 0 1.449 1.449.966c1.118-.371 5.95-5.781 8.12-8.706a3.73 3.73 0 0 0 .612-3.163l-2.45-9.396s-2.899-39.144-14.013-55.577c.004.004-21.261 6.769-17.879 14.983z"/><path id="AC" d="M299.013 165.356h5.371a.68.68 0 0 0 .682-.682v-.164a.68.68 0 0 0-.682-.681h-5.371a.68.68 0 0 0-.682.681v.164c-.004.376.302.682.682.682z"/><path id="AD" d="M262.199 169.528l-11.282-1.286s-7.347-8.482-11.079-9.88c0 0 2.549-2.364 8.348 2.468l5.315 4.349h6.282l2.416 4.349z"/><linearGradient id="AE" gradientUnits="userSpaceOnUse"/></defs></svg>